<svg version="1.1" xmlns="http://www.w3.org/2000/svg" xmlns:xlink="http://www.w3.org/1999/xlink" width="256.000000pt" height="256.000000pt" viewBox="0,0,256,256"><g fill="white" fill-rule="nonzero" stroke="none" stroke-width="1" stroke-linecap="butt" stroke-linejoin="miter" stroke-miterlimit="10" stroke-dasharray="" stroke-dashoffset="0" font-family="none" font-weight="none" font-size="none" text-anchor="none" style="mix-blend-mode: normal"><g transform="translate(0.00783,0.01513)"><g transform="translate(0,256) scale(0.1,-0.1)"><path d="M402,2158c-17,-17 -17,-1739 0,-1756c9,-9 217,-12 874,-12c949,0 894,-4 894,60c0,63 37,60 -852,60h-808v808c0,896 3,852 -64,852c-17,0 -37,-5 -44,-12z"></path><path d="M1750,1425c-184,-184 -338,-335 -341,-335c-4,0 -71,70 -149,156c-134,146 -144,155 -175,152c-28,-2 -70,-36 -239,-191c-173,-158 -206,-193 -206,-216c0,-15 8,-35 18,-44c41,-37 62,-24 242,141c95,86 177,157 182,157c5,0 71,-67 146,-149c76,-82 144,-154 153,-159c9,-5 27,-7 40,-4c13,4 184,166 387,369c323,325 362,367 362,395c0,35 -29,63 -64,63c-13,0 -140,-119 -356,-335z"></path></g></g></g></svg>