<svg version="1.1" xmlns="http://www.w3.org/2000/svg" xmlns:xlink="http://www.w3.org/1999/xlink" width="256.000000pt" height="256.000000pt" viewBox="0,0,256,256"><g fill="white" fill-rule="nonzero" stroke="none" stroke-width="1" stroke-linecap="butt" stroke-linejoin="miter" stroke-miterlimit="10" stroke-dasharray="" stroke-dashoffset="0" font-family="none" font-weight="none" font-size="none" text-anchor="none" style="mix-blend-mode: normal"><g transform="translate(-0.00759,0.0597)"><g transform="translate(0,256) scale(0.1,-0.1)"><path d="M798,2186c-96,-34 -139,-93 -147,-199l-6,-72l-73,-6c-87,-6 -143,-40 -182,-109l-25,-45l-3,-594c-3,-679 -4,-669 72,-739c69,-63 74,-64 736,-60l585,3l45,25c69,39 103,95 109,182l6,73l73,6c87,6 143,40 182,109l25,45l3,585c3,422 0,600 -8,639c-16,71 -83,142 -152,159c-71,18 -1190,16 -1240,-2zM2042,2042l23,-23l3,-577c1,-317 0,-587 -3,-599c-10,-42 -44,-63 -102,-63h-53v480c0,524 0,522 -58,584c-15,16 -45,37 -67,47c-37,17 -74,19 -522,19h-483v53c1,54 11,75 45,95c15,9 176,11 607,9l587,-2zM1755,1755l25,-24v-594c0,-582 0,-594 -20,-615c-11,-12 -31,-24 -43,-27c-12,-3 -282,-4 -599,-3l-577,3l-23,23l-23,23l-3,577c-1,317 0,587 3,600c3,12 14,31 25,42c19,19 36,20 615,20h596z"></path></g></g></g></svg>