<svg version="1.1" xmlns="http://www.w3.org/2000/svg" xmlns:xlink="http://www.w3.org/1999/xlink" width="256.000000pt" height="256.000000pt" viewBox="0,0,256,256"><g fill="white" fill-rule="nonzero" stroke="none" stroke-width="1" stroke-linecap="butt" stroke-linejoin="miter" stroke-miterlimit="10" stroke-dasharray="" stroke-dashoffset="0" font-family="none" font-weight="none" font-size="none" text-anchor="none" style="mix-blend-mode: normal"><g transform="translate(0.04729,0.19022)"><g transform="translate(0,256) scale(0.1,-0.1)"><path d="M943,2103c-218,-99 -325,-153 -329,-165c-3,-10 -2,-27 1,-38c14,-46 44,-37 357,105c280,127 305,136 333,126c83,-30 725,-327 726,-336c1,-10 -724,-334 -749,-335c-6,0 -207,86 -444,190c-238,105 -445,190 -460,190c-17,0 -31,-7 -38,-19c-16,-31 -14,-1052 3,-1074c13,-17 884,-424 927,-433c18,-4 150,53 480,206c250,116 461,218 468,227c9,13 12,137 12,538c0,402 -3,525 -12,537c-14,17 -915,428 -939,428c-8,0 -159,-66 -336,-147zM859,1530c225,-99 415,-180 422,-180c6,0 192,79 413,176c220,97 409,179 419,182c16,4 17,-20 15,-449l-3,-453l-395,-183l-395,-182l-3,361c-1,246 -6,366 -13,375c-6,7 -24,13 -39,13c-15,0 -33,-6 -39,-13c-7,-9 -12,-129 -13,-375l-3,-361l-395,182l-395,183l-3,452c-1,285 1,452 7,452c6,0 194,-81 420,-180z"></path></g></g></g></svg>