<svg version="1.1" xmlns="http://www.w3.org/2000/svg" xmlns:xlink="http://www.w3.org/1999/xlink" width="512.000000pt" height="512.000000pt" viewBox="0,0,256,256"><g fill="#13c296" fill-rule="nonzero" stroke="none" stroke-width="1" stroke-linecap="butt" stroke-linejoin="miter" stroke-miterlimit="10" stroke-dasharray="" stroke-dashoffset="0" font-family="none" font-weight="none" font-size="none" text-anchor="none" style="mix-blend-mode: normal"><g transform="translate(0,0.10482) scale(0.5,0.5)"><g transform="translate(0,512) scale(0.1,-0.1)"><path d="M2315,4193c-63,-16 -103,-83 -90,-150c5,-29 32,-62 126,-158c65,-67 119,-124 119,-128c0,-3 -219,-7 -487,-9l-488,-3l-83,-32c-175,-67 -309,-188 -388,-348c-74,-150 -75,-159 -72,-796l3,-561l39,-35c35,-33 42,-35 88,-31c39,4 57,12 81,37l32,31l5,573c6,622 4,598 64,702c37,62 128,142 203,178l68,32l470,3l470,3l-116,-118c-138,-140 -149,-155 -149,-206c0,-96 96,-156 178,-113c15,8 136,124 270,258c258,259 266,270 248,345c-11,43 -480,510 -526,523c-19,6 -37,9 -40,9c-3,-1 -14,-4 -25,-6z"></path><path d="M3995,3170c-11,-4 -31,-20 -45,-35l-25,-27l-5,-571c-6,-622 -4,-598 -64,-702c-37,-62 -128,-142 -203,-178l-68,-32l-470,-3l-470,-3l116,118c138,140 149,155 149,206c0,96 -96,156 -178,113c-15,-8 -136,-124 -270,-258c-258,-259 -266,-270 -248,-345c11,-43 480,-511 525,-523c93,-25 174,51 156,147c-5,29 -32,62 -126,158c-65,67 -119,124 -119,128c0,3 219,8 488,9l487,4l79,28c168,61 313,191 392,351c74,150 75,159 72,796l-3,561l-37,34c-39,35 -86,44 -133,24z"></path></g></g></g></svg>